<svg width="12" height="26" viewBox="0 0 12 26" fill="none" xmlns="http://www.w3.org/2000/svg">
<path d="M10.8308 0.00524588L8.16901 0C5.17856 0 3.24599 2.4354 3.24599 6.20482V9.06567H0.569667C0.3384 9.06567 0.151123 9.29596 0.151123 9.58004V13.7251C0.151123 14.0092 0.338614 14.2392 0.569667 14.2392H3.24599V24.6984C3.24599 24.9825 3.43327 25.2125 3.66454 25.2125H7.15639C7.38765 25.2125 7.57493 24.9822 7.57493 24.6984V14.2392H10.7042C10.9354 14.2392 11.1227 14.0092 11.1227 13.7251L11.124 9.58004C11.124 9.44363 11.0798 9.31302 11.0014 9.21649C10.9231 9.11996 10.8163 9.06567 10.7052 9.06567H7.57493V6.6405C7.57493 5.47487 7.80107 4.88313 9.03727 4.88313L10.8304 4.88234C11.0614 4.88234 11.2487 4.65204 11.2487 4.36825V0.519342C11.2487 0.235803 11.0616 0.00577047 10.8308 0.00524588Z" fill="#FF8513"/>
</svg>
