<svg width="46" height="46" viewBox="0 0 46 46" fill="none" xmlns="http://www.w3.org/2000/svg">
<path d="M13.8999 0.400024L17.8999 4.20001C19.3999 5.60001 20.1999 7.50002 20.1999 9.60002C20.1999 11.6 20.9999 13.5 22.3999 14.9L22.8999 15.4L27.4999 0.500015" fill="#FF0000"/>
<path d="M0.300049 13.7L5.80005 13.5C7.80005 13.4 9.80004 14.2 11.2 15.6C12.6 17 14.5 17.7 16.5 17.7H17.2L9.80005 4" fill="black"/>
<path d="M0.300003 32.7L4 28.7C5.4 27.2 7.3 26.3 9.3 26.3C11.3 26.3 13.1 25.4 14.5 24L15 23.5L0 19.2" fill="#7000FF"/>
<path d="M13.9 45.9L13.6 40.4C13.5 38.4 14.2 36.4 15.6 34.9C16.9 33.5 17.7 31.5 17.6 29.6V28.9L4 36.6" fill="#3301F8"/>
<path d="M32.8999 45.5L28.7999 41.9C27.2999 40.6 26.3999 38.7 26.2999 36.6C26.1999 34.6 25.2999 32.8 23.8999 31.4L23.3999 30.9L19.3999 46" fill="#58B8FF"/>
<path d="M45.9 31.6L40.4 32C38.4 32.2 36.4 31.5 34.9 30.1C33.4 28.8 31.5 28.1 29.5 28.2H28.8L36.8 41.6" fill="#00B533"/>
<path d="M45 12.7L41.5 16.9C40.2 18.4 38.3 19.4 36.3 19.5C34.3 19.6 32.5 20.5 31.2 22L30.8 22.5L46 26.1" fill="#F0E937"/>
<path d="M30.9 0L31.4 5.5C31.6 7.5 31 9.50001 29.6 11.1C28.3 12.6 27.7 14.5 27.8 16.5L27.9 17.2L41.1 8.90001" fill="#FFA800"/>
</svg>
