<svg width="22" height="21" viewBox="0 0 22 21" fill="none" xmlns="http://www.w3.org/2000/svg">
<path d="M21.3595 2.45724C20.5521 2.88388 19.7443 3.15032 18.9372 3.25734C19.8488 2.58545 20.4655 1.63624 20.7869 0.409789C19.9528 1.01758 19.063 1.43341 18.1167 1.65748C17.283 0.569652 16.2586 0.0255127 15.0428 0.0255127C13.8794 0.0255127 12.8875 0.529364 12.0666 1.53728C11.2462 2.54515 10.836 3.76355 10.836 5.19262C10.836 5.57649 10.8706 5.97125 10.9402 6.37649C9.22089 6.26985 7.60809 5.73928 6.1015 4.78475C4.595 3.83011 3.31644 2.55828 2.26586 0.969225C1.8838 1.76893 1.69271 2.63828 1.69271 3.57679C1.69271 4.462 1.86199 5.28333 2.2008 6.04057C2.53938 6.79769 2.99534 7.41086 3.56844 7.88019C2.89106 7.84814 2.25723 7.62945 1.66689 7.22416V7.28814C1.66689 8.53606 1.98598 9.63169 2.6241 10.5758C3.2623 11.5199 4.0677 12.1141 5.0401 12.3595C4.67538 12.4767 4.30628 12.5354 3.93297 12.5354C3.68983 12.5354 3.42497 12.5088 3.13849 12.4558C3.40764 13.4901 3.9026 14.3403 4.62318 15.0073C5.34391 15.6738 6.16012 16.0174 7.07185 16.0392C5.54372 17.5108 3.80283 18.2466 1.84917 18.2466C1.47574 18.2466 1.13721 18.2257 0.833252 18.1829C2.78696 19.7291 4.94028 20.5023 7.29338 20.5023C8.78683 20.5023 10.1891 20.2119 11.4998 19.6305C12.8112 19.0495 13.9312 18.2708 14.8603 17.2947C15.7893 16.319 16.5904 15.1964 17.2633 13.9273C17.9361 12.6581 18.4374 11.3331 18.7676 9.95197C19.0974 8.57058 19.2624 7.18707 19.2624 5.80035C19.2624 5.5017 19.2581 5.27784 19.2493 5.12845C20.0745 4.39291 20.7777 3.5022 21.3595 2.45724Z" fill="#FF8513"/>
</svg>
