<svg width="23" height="20" viewBox="0 0 23 20" fill="none" xmlns="http://www.w3.org/2000/svg">
<path d="M21.6361 2.409C20.8541 1.26707 19.41 0.80127 16.6524 0.80127H6.64203C3.82123 0.80127 2.35279 1.29712 1.57363 2.51286C0.813965 3.69823 0.813965 5.44477 0.813965 7.86202V12.4693C0.813965 17.1523 1.7153 19.53 6.64203 19.53H16.6524C19.0439 19.53 20.3691 19.119 21.2264 18.1112C22.1056 17.0778 22.4807 15.3905 22.4807 12.4693V7.86202C22.4807 5.31282 22.4219 3.55599 21.6361 2.409ZM14.7241 10.8017L10.1784 13.7197C10.0768 13.785 9.96562 13.8173 9.85463 13.8173C9.72896 13.8173 9.60358 13.7758 9.49253 13.6932C9.28341 13.5376 9.15571 13.2592 9.15571 12.9589V7.1416C9.15571 6.84182 9.28305 6.56368 9.49176 6.40795C9.70052 6.25224 9.96017 6.24159 10.1768 6.3798L14.7225 9.27899C14.9538 9.42648 15.0989 9.71973 15.0993 10.0397C15.0996 10.3599 14.955 10.6536 14.7241 10.8017Z" fill="#FF8513"/>
</svg>
